<svg width="36" height="37" viewBox="0 0 36 37" fill="none" xmlns="http://www.w3.org/2000/svg">
	<mask id="mask0" mask-type="alpha" maskUnits="userSpaceOnUse" x="6" y="6" width="24" height="25">
		<g clip-path="url(#clip0)">
			<path d="M17.929 12.5105C17.9681 12.4714 18.0314 12.4714 18.0705 12.5105L20.0784 14.5184C20.1174 14.5574 20.1174 14.6208 20.0784 14.6598L18.0705 16.6677C18.0314 16.7068 17.9681 16.7068 17.929 16.6677L15.9211 14.6598C15.8821 14.6208 15.8821 14.5574 15.9211 14.5184L17.929 12.5105Z" stroke="#272B2F" stroke-width="1.8" />
			<path d="M21.8397 16.4216C21.8787 16.3826 21.9421 16.3826 21.9811 16.4216L23.989 18.4295C24.0281 18.4686 24.0281 18.5319 23.989 18.5709L21.9811 20.5788C21.9421 20.6179 21.8787 20.6179 21.8397 20.5788L19.8318 18.5709C19.7927 18.5319 19.7927 18.4686 19.8318 18.4295L21.8397 16.4216Z" stroke="#272B2F" stroke-width="1.8" />
			<path d="M17.929 20.3328C17.9681 20.2937 18.0314 20.2937 18.0705 20.3328L20.0784 22.3407C20.1174 22.3797 20.1174 22.443 20.0784 22.4821L18.0705 24.49C18.0314 24.529 17.9681 24.529 17.929 24.49L15.9211 22.4821C15.8821 22.443 15.8821 22.3797 15.9211 22.3407L17.929 20.3328Z" stroke="#272B2F" stroke-width="1.8" />
			<path d="M14.0184 16.4216C14.0574 16.3826 14.1208 16.3826 14.1598 16.4216L16.1677 18.4295C16.2068 18.4686 16.2068 18.5319 16.1677 18.5709L14.1598 20.5788C14.1208 20.6179 14.0574 20.6179 14.0184 20.5788L12.0105 18.5709C11.9714 18.5319 11.9714 18.4686 12.0105 18.4295L14.0184 16.4216Z" stroke="#272B2F" stroke-width="1.8" />
		</g>
	</mask>
	<g mask="url(#mask0)">
		<rect y="0.5" width="36" height="36" fill="#DA1414" />
	</g>
	<defs>
		<clipPath id="clip0">
			<rect width="16" height="16" fill="white" transform="translate(10 10.5)" />
		</clipPath>
	</defs>
</svg>
