<svg width="36" height="36" viewBox="0 0 36 36" fill="none" xmlns="http://www.w3.org/2000/svg">
	<mask id="mask0" mask-type="alpha" maskUnits="userSpaceOnUse" x="6" y="6" width="24" height="24">
		<path d="M22.0002 24.6663H14.0002C13.2638 24.6663 12.6668 24.1237 12.6668 23.4542V14.2593C12.6668 13.9379 12.8073 13.6295 13.0574 13.4022L14.943 11.688C15.193 11.4607 15.5322 11.333 15.8858 11.333H22.0002C22.7365 11.333 23.3335 11.8757 23.3335 12.5451V23.4542C23.3335 24.1237 22.7365 24.6663 22.0002 24.6663Z" stroke="#272B2F" stroke-width="1.8" />
		<path d="M20.667 18.3333C20.667 17.597 20.07 17 19.3337 17H16.667C15.9306 17 15.3337 17.597 15.3337 18.3333V21C15.3337 21.7364 15.9306 22.3333 16.667 22.3333H19.3337C20.07 22.3333 20.667 21.7364 20.667 21V18.3333Z" stroke="#272B2F" stroke-width="1.8" />
	</mask>
	<g mask="url(#mask0)">
		<rect width="36" height="36" fill="#2D2D2D" />
	</g>
</svg>
