<svg width="36" height="36" viewBox="0 0 36 36" fill="none" xmlns="http://www.w3.org/2000/svg">
	<mask id="mask0" mask-type="alpha" maskUnits="userSpaceOnUse" x="6" y="6" width="24" height="24">
		<circle cx="17.9997" cy="17.9997" r="6.66667" stroke="#272B2F" stroke-width="1.8" />
		<path d="M19.4286 16.0432C19.9256 16.0432 20.3286 15.6402 20.3286 15.1432C20.3286 14.6461 19.9256 14.2432 19.4286 14.2432V16.0432ZM18.9 13.667C18.9 13.1699 18.4971 12.767 18 12.767C17.5029 12.767 17.1 13.1699 17.1 13.667H18.9ZM16.5714 19.9575C16.0744 19.9575 15.6714 20.3604 15.6714 20.8575C15.6714 21.3545 16.0744 21.7575 16.5714 21.7575V19.9575ZM17.1 22.3337C17.1 22.8307 17.5029 23.2337 18 23.2337C18.4971 23.2337 18.9 22.8307 18.9 22.3337H17.1ZM17.4286 18.9003H18.5714V17.1003H17.4286V18.9003ZM19.4286 14.2432H18V16.0432H19.4286V14.2432ZM18 14.2432H17.4286V16.0432H18V14.2432ZM18.9 15.1432V13.667H17.1V15.1432H18.9ZM18.5714 19.9575H18V21.7575H18.5714V19.9575ZM18 19.9575H16.5714V21.7575H18V19.9575ZM17.1 20.8575V22.3337H18.9V20.8575H17.1ZM19.1 19.4289C19.1 19.7208 18.8634 19.9575 18.5714 19.9575V21.7575C19.8575 21.7575 20.9 20.7149 20.9 19.4289H19.1ZM18.5714 18.9003C18.8634 18.9003 19.1 19.137 19.1 19.4289H20.9C20.9 18.1429 19.8575 17.1003 18.5714 17.1003V18.9003ZM15.1 16.5718C15.1 17.8578 16.1425 18.9003 17.4286 18.9003V17.1003C17.1366 17.1003 16.9 16.8637 16.9 16.5718H15.1ZM16.9 16.5718C16.9 16.2798 17.1366 16.0432 17.4286 16.0432V14.2432C16.1425 14.2432 15.1 15.2857 15.1 16.5718H16.9Z" fill="#272B2F" />
	</mask>
	<g mask="url(#mask0)">
		<rect width="36" height="36" fill="#DA1414" />
	</g>
</svg>
