<svg width="36" height="36" viewBox="0 0 36 36" fill="none" xmlns="http://www.w3.org/2000/svg">
	<mask id="mask0" mask-type="alpha" maskUnits="userSpaceOnUse" x="6" y="6" width="24" height="24">
		<path d="M18.0348 23.3332C15.2972 23.3332 13.0382 21.2974 12.708 18.6665" stroke="#272B2F" stroke-width="1.8" stroke-dasharray="2 2" />
		<path d="M17.9648 22.4332C17.4678 22.4332 17.0648 22.8361 17.0648 23.3332C17.0648 23.8302 17.4678 24.2332 17.9648 24.2332V22.4332ZM12.6528 17.2245L11.8301 17.5892L12.2188 18.4661L13.0692 18.0224L12.6528 17.2245ZM12.4893 14.6351C12.2878 14.1807 11.7561 13.9756 11.3017 14.1771C10.8473 14.3785 10.6423 14.9102 10.8437 15.3646L12.4893 14.6351ZM15.4162 16.7978C15.8568 16.5678 16.0277 16.0242 15.7978 15.5835C15.5678 15.1428 15.0242 14.972 14.5835 15.2019L15.4162 16.7978ZM22.4332 17.9998C22.4332 20.4428 20.4382 22.4332 17.9648 22.4332V24.2332C21.4212 24.2332 24.2332 21.448 24.2332 17.9998H22.4332ZM17.9648 13.5665C20.4382 13.5665 22.4332 15.5569 22.4332 17.9998H24.2332C24.2332 14.5517 21.4212 11.7665 17.9648 11.7665V13.5665ZM13.5433 17.355C13.8568 15.2168 15.7138 13.5665 17.9648 13.5665V11.7665C14.8164 11.7665 12.2048 14.076 11.7623 17.0939L13.5433 17.355ZM13.4756 16.8597L12.4893 14.6351L10.8437 15.3646L11.8301 17.5892L13.4756 16.8597ZM13.0692 18.0224L15.4162 16.7978L14.5835 15.2019L12.2365 16.4265L13.0692 18.0224Z" fill="#272B2F" />
		<path d="M17.3335 16V18.6667H20.0002" stroke="#272B2F" stroke-width="1.8" stroke-linecap="round" />
	</mask>
	<g mask="url(#mask0)">
		<rect width="36" height="36" fill="#2D2D2D" />
	</g>
</svg>
