<svg width="36" height="36" viewBox="0 0 36 36" fill="none" xmlns="http://www.w3.org/2000/svg">
	<mask id="mask0" mask-type="alpha" maskUnits="userSpaceOnUse" x="6" y="6" width="24" height="24">
		<path d="M13.334 15.333C13.334 16.4376 14.2294 17.333 15.334 17.333C16.4386 17.333 17.334 16.4376 17.334 15.333C17.334 14.2284 16.4386 13.333 15.334 13.333C14.2294 13.333 13.334 14.2284 13.334 15.333ZM13.334 15.333H11.334M19.334 15.333H24.6673" stroke="#272B2F" stroke-width="1.8" />
		<path d="M22.6673 20.666C22.6673 21.7706 21.7719 22.666 20.6673 22.666C19.5627 22.666 18.6673 21.7706 18.6673 20.666C18.6673 19.5614 19.5627 18.666 20.6673 18.666C21.7719 18.666 22.6673 19.5614 22.6673 20.666ZM22.6673 20.666H24.6673M16.6673 20.666H11.334" stroke="#272B2F" stroke-width="1.8" />
	</mask>
	<g mask="url(#mask0)">
		<rect width="36" height="36" fill="#2D2D2D" />
	</g>
</svg>
