<svg width="24" height="24" viewBox="0 0 24 24" fill="none" xmlns="http://www.w3.org/2000/svg">
	<path d="M9.5 21H5.7C4.20883 21 3 19.7912 3 18.3V5.7C3 4.20883 4.20883 3 5.7 3H18.3C19.7912 3 21 4.20883 21 5.7V18.3C21 19.7912 19.7912 21 18.3 21H16.95" stroke="#2D2D2D" stroke-width="1.8" />
	<path d="M14.4021 21V14.6611H16.6316L17 12.25H14.4021V10.5778C14.4021 9.91764 14.872 9.41111 15.4845 9.41111H16.9639V7H15.4845C13.6471 7 12.1657 8.60417 12.1657 10.5845V12.25H10V14.6611H12.1657V21H14.4021Z" fill="#2D2D2D" />
</svg>
