<svg width="20" height="20" viewBox="0 0 20 20" fill="none" xmlns="http://www.w3.org/2000/svg">
	<path d="M4.16699 8.08824C4.16699 5.00194 6.77866 2.5 10.0003 2.5C13.222 2.5 15.8337 5.00194 15.8337 8.08824C15.8337 9.74328 15.0826 11.2303 13.8892 12.2535C13.2411 12.7278 11.9448 14.049 11.9448 15.5392V17.3333C11.9448 17.8856 11.4971 18.3333 10.9448 18.3333H9.05588C8.5036 18.3333 8.05588 17.8856 8.05588 17.3333V15.5392C8.05588 14.049 6.75959 12.7278 6.11144 12.2535C4.91804 11.2303 4.16699 9.74328 4.16699 8.08824Z" fill="#FFE55B" />
	<path d="M8.05588 15.5392C8.05588 14.049 6.75959 12.7278 6.11144 12.2535C4.91804 11.2303 4.16699 9.74328 4.16699 8.08824C4.16699 5.00194 6.77866 2.5 10.0003 2.5C13.222 2.5 15.8337 5.00194 15.8337 8.08824C15.8337 9.74328 15.0826 11.2303 13.8892 12.2535C13.2411 12.7278 11.9448 14.049 11.9448 15.5392M8.05588 15.5392V17.3333C8.05588 17.8856 8.5036 18.3333 9.05588 18.3333H10.9448C11.4971 18.3333 11.9448 17.8856 11.9448 17.3333V15.5392M8.05588 15.5392H10.0003H11.9448" stroke="#FFDE32" stroke-width="1.6" />
	<path d="M13.5007 7.5C13.5007 6.50442 12.856 5.61079 11.834 5" stroke="#FFF6C6" stroke-width="1.6" stroke-linecap="round" />
	<path d="M10.0003 15.417V12.0837M10.0003 12.0837L7.91699 10.417M10.0003 12.0837L12.0837 10.417" stroke="white" stroke-width="1.6" />
	<circle cx="3.95801" cy="13.958" r="0.625" fill="#FFDE32" />
	<ellipse cx="2.50033" cy="3.33333" rx="0.833333" ry="0.833333" fill="#FFDE32" />
	<ellipse cx="17.917" cy="5.41699" rx="1.25" ry="1.25" fill="#FFDE32" />
</svg>
