<svg width="24" height="24" viewBox="0 0 24 24" fill="none" xmlns="http://www.w3.org/2000/svg">
	<path d="M12.001 19.9001H12.901V18.1001H12.001V19.9001ZM21.1009 12V12.9H22.9009V12H21.1009ZM22.9009 6.00041C22.9009 4.95119 22.0502 4.1 21.0009 4.1V5.9C21.0556 5.9 21.1009 5.94481 21.1009 6.00041H22.9009ZM21.0009 4.1H3.00097V5.9H21.0009V4.1ZM3.00097 4.1C1.95168 4.1 1.10098 4.95119 1.10098 6.00041H2.90098C2.90098 5.94481 2.94628 5.9 3.00097 5.9V4.1ZM1.10098 6.00041V17.9996H2.90098V6.00041H1.10098ZM1.10098 17.9996C1.10098 19.0489 1.95168 19.9001 3.00097 19.9001V18.1001C2.94628 18.1001 2.90098 18.0552 2.90098 17.9996H1.10098ZM3.00097 19.9001H12.001V18.1001H3.00097V19.9001ZM22.9009 12V6.00041H21.1009V12H22.9009Z" fill="#2D2D2D" />
	<path d="M2.25391 5.33594C2.25391 5.33594 7.35693 9.87195 10.0079 12.228C11.1449 13.239 12.8569 13.239 13.9939 12.228C16.6449 9.87195 21.7479 5.33594 21.7479 5.33594" stroke="#2D2D2D" stroke-width="1.8" stroke-miterlimit="1.5" stroke-linecap="round" stroke-linejoin="round" />
	<path d="M18.9996 15.083V20.9163M16.083 17.9996H21.9163" stroke="#2D2D2D" stroke-width="1.8" stroke-linecap="round" />
</svg>
