<svg width="24" height="24" viewBox="0 0 24 24" fill="none" xmlns="http://www.w3.org/2000/svg">
	<g clip-path="url(#clip0)">
		<path d="M13.96 7.37402C15.432 7.37402 16.6266 8.56869 16.6266 10.0407" stroke="#2D2D2D" stroke-width="1.8" stroke-miterlimit="1" stroke-linecap="round" stroke-linejoin="round" />
		<path d="M14.667 4C17.6101 4 20.0003 6.39022 20.0003 9.33333" stroke="#2D2D2D" stroke-width="1.8" stroke-miterlimit="1" stroke-linecap="round" stroke-linejoin="round" />
		<path fill-rule="evenodd" clip-rule="evenodd" d="M18.8517 19.4955C18.8208 19.53 18.7901 19.5626 18.7584 19.5942C16.8785 21.4741 12.1371 19.7836 8.17653 15.823C4.21509 11.8616 2.5254 7.12108 4.40533 5.24116C4.44109 5.2054 4.47878 5.16955 4.51723 5.13648C4.55745 5.09088 4.59944 5.04704 4.64236 5.00413C4.66688 4.97961 4.69139 4.9551 4.71591 4.93058C5.78256 3.86392 7.40587 3.75848 8.3424 4.69502C8.56846 4.92108 8.80081 5.15343 9.02777 5.38039C9.50052 5.85314 9.74 6.51969 9.69261 7.23449C9.65014 7.90312 9.35987 8.563 8.87974 9.08618C9.59617 10.2052 10.5045 11.3403 11.5819 12.4177C12.6574 13.4933 13.7916 14.4026 14.9098 15.1162C15.9771 14.0543 17.5974 13.9501 18.5322 14.8848C18.7583 15.1109 18.9906 15.3432 19.2184 15.571C19.6903 16.0429 19.9307 16.7104 19.8833 17.4252C19.8369 18.139 19.5094 18.8433 18.9709 19.3817C18.9699 19.3827 18.9699 19.3827 18.9689 19.3838C18.93 19.4226 18.8913 19.4595 18.8517 19.4955Z" stroke="#2D2D2D" stroke-width="1.8" stroke-miterlimit="2" stroke-linecap="round" stroke-linejoin="round" />
	</g>
	<defs>
		<clipPath id="clip0">
			<rect width="24" height="24" fill="white" />
		</clipPath>
	</defs>
</svg>
