<svg width="36" height="36" viewBox="0 0 36 36" fill="none" xmlns="http://www.w3.org/2000/svg">
	<mask id="mask0" mask-type="alpha" maskUnits="userSpaceOnUse" x="6" y="6" width="24" height="24">
		<g clip-path="url(#clip0)">
			<path d="M16.0993 16.3997C16.0993 17.1913 15.4576 17.8331 14.666 17.8331V19.6331C16.4517 19.6331 17.8993 18.1855 17.8993 16.3997H16.0993ZM14.666 17.8331C13.8744 17.8331 13.2327 17.1913 13.2327 16.3997H11.4327C11.4327 18.1855 12.8803 19.6331 14.666 19.6331V17.8331ZM13.2327 16.3997C13.2327 15.6081 13.8744 14.9664 14.666 14.9664V13.1664C12.8803 13.1664 11.4327 14.614 11.4327 16.3997H13.2327ZM14.666 14.9664C15.4576 14.9664 16.0993 15.6081 16.0993 16.3997H17.8993C17.8993 14.614 16.4517 13.1664 14.666 13.1664V14.9664ZM11.2561 22.8452C12.1043 22.1087 13.3084 21.6331 14.666 21.6331V19.8331C12.8926 19.8331 11.2648 20.4538 10.076 21.486L11.2561 22.8452ZM14.666 21.6331C16.0236 21.6331 17.2277 22.1087 18.076 22.8452L19.2561 21.486C18.0672 20.4538 16.4395 19.8331 14.666 19.8331V21.6331Z" fill="#272B2F" />
			<path d="M22.7667 16.3997C22.7667 17.1913 22.1249 17.8331 21.3333 17.8331V19.6331C23.1191 19.6331 24.5667 18.1855 24.5667 16.3997H22.7667ZM21.3333 17.8331C20.5417 17.8331 19.9 17.1913 19.9 16.3997H18.1C18.1 18.1855 19.5476 19.6331 21.3333 19.6331V17.8331ZM19.9 16.3997C19.9 15.6081 20.5417 14.9664 21.3333 14.9664V13.1664C19.5476 13.1664 18.1 14.614 18.1 16.3997H19.9ZM21.3333 14.9664C22.1249 14.9664 22.7667 15.6081 22.7667 16.3997H24.5667C24.5667 14.614 23.1191 13.1664 21.3333 13.1664V14.9664ZM21.3333 21.6331C22.691 21.6331 23.8951 22.1087 24.7433 22.8452L25.9234 21.486C24.7345 20.4538 23.1068 19.8331 21.3333 19.8331V21.6331ZM20.1836 21.7504C20.5506 21.6739 20.9356 21.6331 21.3333 21.6331V19.8331C20.8122 19.8331 20.3042 19.8866 19.8164 19.9883L20.1836 21.7504Z" fill="#272B2F" />
		</g>
	</mask>
	<g mask="url(#mask0)">
		<rect width="36" height="36" fill="#2D2D2D" />
	</g>
	<defs>
		<clipPath id="clip0">
			<rect width="16" height="16" fill="white" transform="translate(10 10)" />
		</clipPath>
	</defs>
</svg>
